<?xml version="1.0" encoding="UTF-8" standalone="no"?><!DOCTYPE svg PUBLIC "-//W3C//DTD SVG 1.1//EN" "http://www.w3.org/Graphics/SVG/1.1/DTD/svg11.dtd"><svg width="100%" height="100%" viewBox="0 0 256 95" version="1.1" xmlns="http://www.w3.org/2000/svg" xmlns:xlink="http://www.w3.org/1999/xlink" xml:space="preserve" xmlns:serif="http://www.serif.com/" style="fill-rule:evenodd;clip-rule:evenodd;stroke-miterlimit:10;"><rect id="header_logo" x="0" y="0" width="256" height="95" style="fill:none;"/><path d="M210.13,37.669c3.15,-1.412 6.698,-3.854 6.901,-7.692c0.197,-1.875 0.588,-3.292 2.883,-4.951l13.091,-9.302c1.779,-1.139 0.454,-2.492 -1.054,-1.363l-13.057,8.859c-4.104,2.479 -5.284,0.679 -7.957,1.379c-1.85,0.484 -3.175,1.161 -5.164,2.221c-0.631,0.338 -3.058,1.182 -3.788,1.206c-1.068,0.036 -1.797,1.104 -1.372,1.707c0.816,1.17 3.766,0.338 5.638,-0.629c3.327,-1.712 7.521,-3.639 8.449,-1.44c0.738,4.278 -2.3,7.39 -9.964,9.051c-1.651,-0.003 -2.241,2.178 0.139,2.145c0.814,-0.066 1.757,-0.194 2.677,-0.39c0.922,-0.197 1.829,-0.459 2.578,-0.801m-9.136,17.508c-0.41,-23.697 -8.827,-28.655 -17.582,-32.811c17.366,-22.548 49.868,2.671 70.81,-21.366c7.317,49.601 -39.033,32.927 -52.694,53.339c-0.165,0.241 -0.341,0.922 -0.474,0.895c-0.02,-0.003 -0.04,-0.02 -0.06,-0.057" style="fill:#fff;fill-rule:nonzero;"/><g><path d="M61.084,43.72c0,4.94 -1.139,9.485 -3.418,13.636c-2.279,4.151 -5.672,7.449 -10.18,9.893c-4.507,2.445 -9.995,3.667 -16.463,3.667c-6.544,0 -12.083,-1.273 -16.616,-3.82c-4.532,-2.546 -7.9,-5.895 -10.103,-10.045c-2.203,-4.151 -3.304,-8.595 -3.304,-13.331c0,-4.762 1.095,-9.212 3.285,-13.35c2.19,-4.138 5.558,-7.474 10.103,-10.008c4.546,-2.534 10.091,-3.801 16.635,-3.801c4.889,0 9.25,0.726 13.083,2.178c3.832,1.451 6.983,3.418 9.454,5.901c2.47,2.483 4.341,5.373 5.615,8.671c1.273,3.298 1.909,6.767 1.909,10.409Zm-16.272,0c0,-1.987 -0.292,-3.801 -0.878,-5.443c-0.586,-1.643 -1.471,-3.069 -2.655,-4.279c-1.184,-1.209 -2.629,-2.151 -4.335,-2.826c-1.706,-0.675 -3.68,-1.012 -5.921,-1.012c-4.278,0 -7.639,1.247 -10.084,3.743c-2.445,2.496 -3.667,5.768 -3.667,9.817c0,4.049 1.229,7.327 3.686,9.836c2.457,2.508 5.812,3.762 10.065,3.762c2.929,0 5.424,-0.579 7.487,-1.738c2.062,-1.159 3.629,-2.763 4.698,-4.813c1.07,-2.05 1.604,-4.399 1.604,-7.047Z" style="fill:#fff;fill-rule:nonzero;"/><path d="M119.375,66.485c-1.146,0.433 -2.126,0.79 -2.941,1.07c-0.815,0.28 -1.598,0.535 -2.349,0.764c-0.751,0.229 -1.84,0.522 -3.266,0.878c-2.419,0.561 -4.832,0.987 -7.238,1.28c-2.407,0.293 -4.947,0.439 -7.621,0.439c-5.373,0 -10.339,-0.98 -14.897,-2.941c-4.558,-1.961 -8.206,-5.004 -10.943,-9.129c-2.738,-4.125 -4.107,-9.193 -4.107,-15.203c0,-3.87 0.707,-7.671 2.12,-11.402c1.414,-3.73 3.572,-6.716 6.475,-8.957c2.394,-1.859 4.819,-3.279 7.276,-4.259c2.458,-0.98 4.858,-1.636 7.201,-1.967c2.342,-0.331 4.927,-0.497 7.754,-0.497c4.66,0 8.505,0.351 11.535,1.051c3.031,0.7 6.354,1.623 9.97,2.769l0,12.529c-2.394,-1.401 -4.928,-2.572 -7.601,-3.514c-2.674,-0.943 -6.01,-1.414 -10.008,-1.414c-4.609,0 -8.295,0.873 -11.058,2.617c-2.763,1.744 -4.686,3.826 -5.768,6.245c-1.082,2.419 -1.623,4.762 -1.623,7.028c0,2.674 0.623,5.138 1.871,7.392c1.248,2.253 3.132,4.061 5.653,5.424c2.521,1.362 5.565,2.043 9.13,2.043c2.037,0 4.201,-0.267 6.493,-0.802l0,-6.226l-7.181,0l0,-10.657l21.123,0l0,25.439Z" style="fill:#fff;fill-rule:nonzero;"/><path d="M187.433,70.229l-16.348,0l-4.317,-10.734l-22.995,0l-4.392,10.734l-16.349,0l23.415,-52.942l17.647,0l23.339,52.942Zm-24.332,-19.939l-7.754,-19.328l-7.83,19.328l15.584,0Z" style="fill:#fff;fill-rule:nonzero;"/></g><path d="M178.154,20.678l-0.216,0.11c-0.85,0.429 -1.807,0.227 -2.133,-0.457l-0.237,-0.495c-0.325,-0.683 0.1,-1.588 0.953,-2.02l3.594,-1.827c0.85,-0.43 1.81,-0.225 2.135,0.457l0.236,0.494c0.325,0.686 -0.098,1.59 -0.952,2.022l-0.073,0.037l23.632,51.186l-4.072,0.046l-22.867,-49.553Z" style="fill:#fff;fill-rule:nonzero;stroke:#fff;stroke-width:2.24px;"/><g transform="matrix(0.619524,0,0,0.619524,1.9778,4.20935)"><g transform="matrix(20.0283,0,0,20.0283,-0.1244,137.721)"><path d="M0.008,-0.714l0.578,0l0,0.108l-0.227,0l0,0.606l-0.125,0l0,-0.606l-0.226,0l0,-0.108Z" style="fill:#fff;fill-rule:nonzero;"/></g><g transform="matrix(20.0283,0,0,20.0283,11.7524,137.721)"><path d="M0.073,-0.714l0.125,0l0,0.284l0.325,0l0,-0.284l0.125,0l0,0.714l-0.125,0l0,-0.322l-0.325,0l0,0.322l-0.125,0l0,-0.714Z" style="fill:#fff;fill-rule:nonzero;"/></g><g transform="matrix(20.0283,0,0,20.0283,26.2128,137.721)"><path d="M0.076,-0.714l0.514,0l0,0.108l-0.389,0l0,0.187l0.36,0l0,0.102l-0.36,0l0,0.209l0.396,0l0,0.108l-0.521,0l0,-0.714Z" style="fill:#fff;fill-rule:nonzero;"/></g><g transform="matrix(20.0283,0,0,20.0283,44.3985,137.721)"><path d="M0.267,-0.714l0.133,0l0.275,0.714l-0.134,0l-0.067,-0.189l-0.285,0l-0.067,0.189l-0.129,0l0.274,-0.714Zm-0.044,0.43l0.218,0l-0.107,-0.307l-0.003,0l-0.108,0.307Z" style="fill:#fff;fill-rule:nonzero;"/></g><g transform="matrix(20.0283,0,0,20.0283,57.7574,137.721)"><path d="M0.158,-0.238c0,0.027 0.005,0.051 0.014,0.07c0.009,0.019 0.022,0.035 0.039,0.048c0.017,0.012 0.036,0.021 0.057,0.027c0.022,0.005 0.046,0.008 0.071,0.008c0.027,0 0.051,-0.003 0.07,-0.009c0.019,-0.007 0.035,-0.015 0.047,-0.025c0.012,-0.01 0.021,-0.021 0.026,-0.034c0.005,-0.013 0.008,-0.027 0.008,-0.04c0,-0.027 -0.006,-0.047 -0.019,-0.06c-0.012,-0.014 -0.025,-0.023 -0.04,-0.028c-0.025,-0.009 -0.055,-0.018 -0.089,-0.026c-0.033,-0.009 -0.075,-0.02 -0.124,-0.033c-0.031,-0.008 -0.056,-0.018 -0.077,-0.031c-0.02,-0.013 -0.036,-0.028 -0.048,-0.044c-0.012,-0.016 -0.021,-0.033 -0.026,-0.051c-0.005,-0.018 -0.007,-0.036 -0.007,-0.055c0,-0.036 0.007,-0.067 0.022,-0.093c0.015,-0.027 0.035,-0.049 0.06,-0.066c0.025,-0.017 0.053,-0.03 0.084,-0.038c0.031,-0.009 0.063,-0.013 0.095,-0.013c0.037,0 0.072,0.005 0.105,0.015c0.033,0.009 0.062,0.024 0.087,0.043c0.025,0.019 0.045,0.043 0.06,0.072c0.015,0.028 0.022,0.061 0.022,0.098l-0.125,0c-0.003,-0.046 -0.019,-0.078 -0.047,-0.097c-0.028,-0.019 -0.064,-0.029 -0.107,-0.029c-0.015,0 -0.03,0.002 -0.045,0.005c-0.015,0.003 -0.029,0.008 -0.042,0.015c-0.013,0.007 -0.023,0.016 -0.032,0.028c-0.008,0.012 -0.012,0.027 -0.012,0.045c0,0.025 0.008,0.045 0.023,0.06c0.016,0.014 0.037,0.025 0.062,0.032c0.003,0.001 0.013,0.004 0.031,0.009c0.019,0.005 0.039,0.01 0.062,0.016c0.023,0.006 0.045,0.012 0.066,0.018c0.022,0.005 0.038,0.009 0.047,0.012c0.023,0.007 0.044,0.017 0.061,0.03c0.017,0.013 0.032,0.027 0.043,0.044c0.012,0.016 0.021,0.033 0.026,0.052c0.006,0.019 0.009,0.037 0.009,0.056c0,0.04 -0.008,0.074 -0.025,0.103c-0.016,0.028 -0.037,0.051 -0.064,0.069c-0.027,0.018 -0.057,0.031 -0.091,0.04c-0.034,0.008 -0.069,0.012 -0.104,0.012c-0.041,0 -0.079,-0.005 -0.115,-0.015c-0.036,-0.01 -0.067,-0.025 -0.094,-0.046c-0.027,-0.021 -0.048,-0.047 -0.064,-0.079c-0.016,-0.033 -0.024,-0.071 -0.025,-0.115l0.125,0Z" style="fill:#fff;fill-rule:nonzero;"/></g><g transform="matrix(20.0283,0,0,20.0283,70.7357,137.721)"><path d="M0.158,-0.238c0,0.027 0.005,0.051 0.014,0.07c0.009,0.019 0.022,0.035 0.039,0.048c0.017,0.012 0.036,0.021 0.057,0.027c0.022,0.005 0.046,0.008 0.071,0.008c0.027,0 0.051,-0.003 0.07,-0.009c0.019,-0.007 0.035,-0.015 0.047,-0.025c0.012,-0.01 0.021,-0.021 0.026,-0.034c0.005,-0.013 0.008,-0.027 0.008,-0.04c0,-0.027 -0.006,-0.047 -0.019,-0.06c-0.012,-0.014 -0.025,-0.023 -0.04,-0.028c-0.025,-0.009 -0.055,-0.018 -0.089,-0.026c-0.033,-0.009 -0.075,-0.02 -0.124,-0.033c-0.031,-0.008 -0.056,-0.018 -0.077,-0.031c-0.02,-0.013 -0.036,-0.028 -0.048,-0.044c-0.012,-0.016 -0.021,-0.033 -0.026,-0.051c-0.005,-0.018 -0.007,-0.036 -0.007,-0.055c0,-0.036 0.007,-0.067 0.022,-0.093c0.015,-0.027 0.035,-0.049 0.06,-0.066c0.025,-0.017 0.053,-0.03 0.084,-0.038c0.031,-0.009 0.063,-0.013 0.095,-0.013c0.037,0 0.072,0.005 0.105,0.015c0.033,0.009 0.062,0.024 0.087,0.043c0.025,0.019 0.045,0.043 0.06,0.072c0.015,0.028 0.022,0.061 0.022,0.098l-0.125,0c-0.003,-0.046 -0.019,-0.078 -0.047,-0.097c-0.028,-0.019 -0.064,-0.029 -0.107,-0.029c-0.015,0 -0.03,0.002 -0.045,0.005c-0.015,0.003 -0.029,0.008 -0.042,0.015c-0.013,0.007 -0.023,0.016 -0.032,0.028c-0.008,0.012 -0.012,0.027 -0.012,0.045c0,0.025 0.008,0.045 0.023,0.06c0.016,0.014 0.037,0.025 0.062,0.032c0.003,0.001 0.013,0.004 0.031,0.009c0.019,0.005 0.039,0.01 0.062,0.016c0.023,0.006 0.045,0.012 0.066,0.018c0.022,0.005 0.038,0.009 0.047,0.012c0.023,0.007 0.044,0.017 0.061,0.03c0.017,0.013 0.032,0.027 0.043,0.044c0.012,0.016 0.021,0.033 0.026,0.052c0.006,0.019 0.009,0.037 0.009,0.056c0,0.04 -0.008,0.074 -0.025,0.103c-0.016,0.028 -0.037,0.051 -0.064,0.069c-0.027,0.018 -0.057,0.031 -0.091,0.04c-0.034,0.008 -0.069,0.012 -0.104,0.012c-0.041,0 -0.079,-0.005 -0.115,-0.015c-0.036,-0.01 -0.067,-0.025 -0.094,-0.046c-0.027,-0.021 -0.048,-0.047 -0.064,-0.079c-0.016,-0.033 -0.024,-0.071 -0.025,-0.115l0.125,0Z" style="fill:#fff;fill-rule:nonzero;"/></g><g transform="matrix(20.0283,0,0,20.0283,83.7141,137.721)"><path d="M0.38,-0.629c-0.038,0 -0.071,0.008 -0.098,0.023c-0.028,0.015 -0.051,0.036 -0.068,0.062c-0.017,0.025 -0.03,0.054 -0.039,0.087c-0.008,0.033 -0.012,0.066 -0.012,0.1c0,0.034 0.004,0.067 0.013,0.1c0.008,0.033 0.021,0.062 0.038,0.087c0.017,0.026 0.04,0.047 0.068,0.062c0.027,0.015 0.06,0.023 0.098,0.023c0.038,0 0.071,-0.008 0.099,-0.023c0.027,-0.015 0.05,-0.036 0.067,-0.062c0.017,-0.025 0.03,-0.054 0.038,-0.087c0.009,-0.033 0.013,-0.066 0.013,-0.1c0,-0.034 -0.004,-0.067 -0.013,-0.1c-0.008,-0.033 -0.021,-0.062 -0.038,-0.088c-0.017,-0.025 -0.04,-0.046 -0.068,-0.061c-0.027,-0.015 -0.06,-0.023 -0.098,-0.023Zm0,-0.102c0.053,0 0.101,0.01 0.143,0.03c0.043,0.02 0.079,0.047 0.108,0.081c0.029,0.034 0.052,0.074 0.068,0.119c0.015,0.045 0.023,0.093 0.023,0.144c0,0.051 -0.008,0.1 -0.024,0.145c-0.015,0.045 -0.038,0.085 -0.067,0.119c-0.029,0.034 -0.065,0.061 -0.108,0.08c-0.042,0.02 -0.09,0.03 -0.143,0.03c-0.053,0 -0.101,-0.01 -0.143,-0.03c-0.043,-0.019 -0.079,-0.046 -0.108,-0.08c-0.029,-0.034 -0.052,-0.074 -0.068,-0.119c-0.015,-0.045 -0.023,-0.094 -0.023,-0.145c0,-0.051 0.008,-0.099 0.024,-0.144c0.015,-0.045 0.038,-0.085 0.067,-0.119c0.029,-0.034 0.065,-0.061 0.108,-0.081c0.042,-0.02 0.09,-0.03 0.143,-0.03Z" style="fill:#fff;fill-rule:nonzero;"/></g><g transform="matrix(20.0283,0,0,20.0283,98.9356,137.721)"><path d="M0.558,-0.487c-0.005,-0.021 -0.013,-0.04 -0.022,-0.057c-0.009,-0.017 -0.021,-0.032 -0.036,-0.045c-0.015,-0.013 -0.032,-0.022 -0.051,-0.029c-0.02,-0.007 -0.043,-0.011 -0.069,-0.011c-0.038,0 -0.071,0.008 -0.098,0.023c-0.028,0.015 -0.051,0.036 -0.068,0.062c-0.017,0.025 -0.03,0.054 -0.039,0.087c-0.008,0.033 -0.012,0.066 -0.012,0.1c0,0.034 0.004,0.067 0.013,0.1c0.008,0.033 0.021,0.062 0.038,0.087c0.017,0.026 0.04,0.047 0.068,0.062c0.027,0.015 0.06,0.023 0.098,0.023c0.028,0 0.053,-0.005 0.074,-0.015c0.021,-0.009 0.04,-0.023 0.055,-0.04c0.015,-0.017 0.027,-0.036 0.036,-0.059c0.009,-0.023 0.014,-0.047 0.017,-0.073l0.122,0c-0.003,0.043 -0.012,0.082 -0.028,0.117c-0.015,0.035 -0.036,0.066 -0.063,0.091c-0.027,0.026 -0.058,0.046 -0.094,0.06c-0.036,0.014 -0.076,0.021 -0.119,0.021c-0.053,0 -0.101,-0.01 -0.143,-0.03c-0.043,-0.019 -0.079,-0.046 -0.108,-0.08c-0.029,-0.034 -0.052,-0.074 -0.068,-0.119c-0.015,-0.045 -0.023,-0.094 -0.023,-0.145c0,-0.051 0.008,-0.099 0.024,-0.144c0.015,-0.045 0.038,-0.085 0.067,-0.119c0.029,-0.034 0.065,-0.061 0.108,-0.081c0.042,-0.02 0.09,-0.03 0.143,-0.03c0.04,0 0.078,0.006 0.113,0.016c0.035,0.011 0.067,0.027 0.094,0.048c0.027,0.021 0.048,0.047 0.065,0.077c0.017,0.03 0.027,0.064 0.031,0.103l-0.125,0Z" style="fill:#fff;fill-rule:nonzero;"/></g><g transform="matrix(20.0283,0,0,20.0283,113.396,137.721)"><rect x="0.076" y="-0.714" width="0.125" height="0.714" style="fill:#fff;fill-rule:nonzero;"/></g><g transform="matrix(20.0283,0,0,20.0283,118.964,137.721)"><path d="M0.267,-0.714l0.133,0l0.275,0.714l-0.134,0l-0.067,-0.189l-0.285,0l-0.067,0.189l-0.129,0l0.274,-0.714Zm-0.044,0.43l0.218,0l-0.107,-0.307l-0.003,0l-0.108,0.307Z" style="fill:#fff;fill-rule:nonzero;"/></g><g transform="matrix(20.0283,0,0,20.0283,132.33,137.721)"><path d="M0.008,-0.714l0.578,0l0,0.108l-0.227,0l0,0.606l-0.125,0l0,-0.606l-0.226,0l0,-0.108Z" style="fill:#fff;fill-rule:nonzero;"/></g><g transform="matrix(20.0283,0,0,20.0283,144.207,137.721)"><rect x="0.076" y="-0.714" width="0.125" height="0.714" style="fill:#fff;fill-rule:nonzero;"/></g><g transform="matrix(20.0283,0,0,20.0283,149.775,137.721)"><path d="M0.38,-0.629c-0.038,0 -0.071,0.008 -0.098,0.023c-0.028,0.015 -0.051,0.036 -0.068,0.062c-0.017,0.025 -0.03,0.054 -0.039,0.087c-0.008,0.033 -0.012,0.066 -0.012,0.1c0,0.034 0.004,0.067 0.013,0.1c0.008,0.033 0.021,0.062 0.038,0.087c0.017,0.026 0.04,0.047 0.068,0.062c0.027,0.015 0.06,0.023 0.098,0.023c0.038,0 0.071,-0.008 0.099,-0.023c0.027,-0.015 0.05,-0.036 0.067,-0.062c0.017,-0.025 0.03,-0.054 0.038,-0.087c0.009,-0.033 0.013,-0.066 0.013,-0.1c0,-0.034 -0.004,-0.067 -0.013,-0.1c-0.008,-0.033 -0.021,-0.062 -0.038,-0.088c-0.017,-0.025 -0.04,-0.046 -0.068,-0.061c-0.027,-0.015 -0.06,-0.023 -0.098,-0.023Zm0,-0.102c0.053,0 0.101,0.01 0.143,0.03c0.043,0.02 0.079,0.047 0.108,0.081c0.029,0.034 0.052,0.074 0.068,0.119c0.015,0.045 0.023,0.093 0.023,0.144c0,0.051 -0.008,0.1 -0.024,0.145c-0.015,0.045 -0.038,0.085 -0.067,0.119c-0.029,0.034 -0.065,0.061 -0.108,0.08c-0.042,0.02 -0.09,0.03 -0.143,0.03c-0.053,0 -0.101,-0.01 -0.143,-0.03c-0.043,-0.019 -0.079,-0.046 -0.108,-0.08c-0.029,-0.034 -0.052,-0.074 -0.068,-0.119c-0.015,-0.045 -0.023,-0.094 -0.023,-0.145c0,-0.051 0.008,-0.099 0.024,-0.144c0.015,-0.045 0.038,-0.085 0.067,-0.119c0.029,-0.034 0.065,-0.061 0.108,-0.081c0.042,-0.02 0.09,-0.03 0.143,-0.03Z" style="fill:#fff;fill-rule:nonzero;"/></g><g transform="matrix(20.0283,0,0,20.0283,164.996,137.721)"><path d="M0.071,-0.714l0.132,0l0.326,0.526l0.002,0l0,-0.526l0.119,0l0,0.714l-0.132,0l-0.325,-0.525l-0.003,0l0,0.525l-0.119,0l0,-0.714Z" style="fill:#fff;fill-rule:nonzero;"/></g><g transform="matrix(20.0283,0,0,20.0283,185.025,137.721)"><path d="M0.076,-0.714l0.493,0l0,0.108l-0.368,0l0,0.187l0.323,0l0,0.102l-0.323,0l0,0.317l-0.125,0l0,-0.714Z" style="fill:#fff;fill-rule:nonzero;"/></g><g transform="matrix(20.0283,0,0,20.0283,196.901,137.721)"><path d="M0.38,-0.629c-0.038,0 -0.071,0.008 -0.098,0.023c-0.028,0.015 -0.051,0.036 -0.068,0.062c-0.017,0.025 -0.03,0.054 -0.039,0.087c-0.008,0.033 -0.012,0.066 -0.012,0.1c0,0.034 0.004,0.067 0.013,0.1c0.008,0.033 0.021,0.062 0.038,0.087c0.017,0.026 0.04,0.047 0.068,0.062c0.027,0.015 0.06,0.023 0.098,0.023c0.038,0 0.071,-0.008 0.099,-0.023c0.027,-0.015 0.05,-0.036 0.067,-0.062c0.017,-0.025 0.03,-0.054 0.038,-0.087c0.009,-0.033 0.013,-0.066 0.013,-0.1c0,-0.034 -0.004,-0.067 -0.013,-0.1c-0.008,-0.033 -0.021,-0.062 -0.038,-0.088c-0.017,-0.025 -0.04,-0.046 -0.068,-0.061c-0.027,-0.015 -0.06,-0.023 -0.098,-0.023Zm0,-0.102c0.053,0 0.101,0.01 0.143,0.03c0.043,0.02 0.079,0.047 0.108,0.081c0.029,0.034 0.052,0.074 0.068,0.119c0.015,0.045 0.023,0.093 0.023,0.144c0,0.051 -0.008,0.1 -0.024,0.145c-0.015,0.045 -0.038,0.085 -0.067,0.119c-0.029,0.034 -0.065,0.061 -0.108,0.08c-0.042,0.02 -0.09,0.03 -0.143,0.03c-0.053,0 -0.101,-0.01 -0.143,-0.03c-0.043,-0.019 -0.079,-0.046 -0.108,-0.08c-0.029,-0.034 -0.052,-0.074 -0.068,-0.119c-0.015,-0.045 -0.023,-0.094 -0.023,-0.145c0,-0.051 0.008,-0.099 0.024,-0.144c0.015,-0.045 0.038,-0.085 0.067,-0.119c0.029,-0.034 0.065,-0.061 0.108,-0.081c0.042,-0.02 0.09,-0.03 0.143,-0.03Z" style="fill:#fff;fill-rule:nonzero;"/></g><g transform="matrix(20.0283,0,0,20.0283,212.123,137.721)"><path d="M0.076,-0.714l0.341,0c0.079,0 0.138,0.017 0.177,0.051c0.039,0.034 0.059,0.081 0.059,0.142c0,0.034 -0.005,0.062 -0.015,0.084c-0.01,0.023 -0.022,0.041 -0.035,0.054c-0.013,0.014 -0.027,0.024 -0.04,0.03c-0.013,0.006 -0.022,0.01 -0.028,0.012l0,0.002c0.011,0.001 0.022,0.005 0.034,0.01c0.013,0.005 0.024,0.014 0.035,0.025c0.011,0.012 0.019,0.027 0.026,0.046c0.007,0.019 0.011,0.042 0.011,0.07c0,0.042 0.003,0.08 0.009,0.114c0.007,0.035 0.017,0.059 0.03,0.074l-0.134,0c-0.009,-0.015 -0.015,-0.032 -0.017,-0.051c-0.001,-0.019 -0.002,-0.037 -0.002,-0.054c0,-0.033 -0.002,-0.061 -0.006,-0.085c-0.004,-0.023 -0.011,-0.043 -0.022,-0.059c-0.011,-0.015 -0.025,-0.027 -0.044,-0.034c-0.018,-0.007 -0.041,-0.011 -0.07,-0.011l-0.184,0l0,0.294l-0.125,0l0,-0.714Zm0.125,0.325l0.205,0c0.04,0 0.07,-0.01 0.091,-0.029c0.021,-0.019 0.031,-0.047 0.031,-0.085c0,-0.023 -0.003,-0.041 -0.01,-0.056c-0.007,-0.014 -0.016,-0.025 -0.028,-0.033c-0.011,-0.008 -0.025,-0.013 -0.04,-0.016c-0.015,-0.003 -0.03,-0.004 -0.046,-0.004l-0.203,0l0,0.223Z" style="fill:#fff;fill-rule:nonzero;"/></g><g transform="matrix(20.0283,0,0,20.0283,231.791,137.721)"><path d="M0.699,0l-0.08,0l-0.019,-0.084c-0.033,0.038 -0.067,0.064 -0.1,0.079c-0.033,0.015 -0.072,0.022 -0.115,0.022c-0.053,0 -0.101,-0.01 -0.144,-0.029c-0.042,-0.02 -0.078,-0.047 -0.107,-0.081c-0.029,-0.034 -0.052,-0.074 -0.068,-0.119c-0.015,-0.045 -0.023,-0.094 -0.023,-0.145c0,-0.051 0.008,-0.099 0.023,-0.144c0.016,-0.045 0.039,-0.085 0.068,-0.119c0.029,-0.034 0.065,-0.061 0.107,-0.081c0.043,-0.02 0.091,-0.03 0.144,-0.03c0.039,0 0.075,0.005 0.11,0.015c0.035,0.011 0.067,0.026 0.094,0.046c0.027,0.021 0.05,0.046 0.068,0.077c0.018,0.031 0.029,0.066 0.034,0.106l-0.122,0c-0.003,-0.023 -0.011,-0.044 -0.022,-0.062c-0.01,-0.017 -0.024,-0.032 -0.041,-0.044c-0.017,-0.012 -0.035,-0.021 -0.056,-0.027c-0.021,-0.006 -0.042,-0.009 -0.065,-0.009c-0.038,0 -0.071,0.008 -0.098,0.023c-0.028,0.015 -0.051,0.036 -0.068,0.062c-0.017,0.025 -0.03,0.054 -0.039,0.087c-0.008,0.033 -0.012,0.066 -0.012,0.1c0,0.034 0.004,0.067 0.012,0.1c0.009,0.033 0.022,0.062 0.039,0.087c0.017,0.026 0.04,0.047 0.068,0.062c0.027,0.015 0.06,0.023 0.098,0.023c0.032,0.001 0.06,-0.004 0.085,-0.013c0.025,-0.009 0.045,-0.022 0.062,-0.039c0.017,-0.017 0.03,-0.037 0.039,-0.062c0.009,-0.025 0.013,-0.052 0.014,-0.082l-0.19,0l0,-0.095l0.304,0l0,0.376Z" style="fill:#fff;fill-rule:nonzero;"/></g><g transform="matrix(20.0283,0,0,20.0283,246.992,137.721)"><path d="M0.267,-0.714l0.133,0l0.275,0.714l-0.134,0l-0.067,-0.189l-0.285,0l-0.067,0.189l-0.129,0l0.274,-0.714Zm-0.044,0.43l0.218,0l-0.107,-0.307l-0.003,0l-0.108,0.307Z" style="fill:#fff;fill-rule:nonzero;"/></g><g transform="matrix(20.0283,0,0,20.0283,260.351,137.721)"><path d="M0.076,-0.714l0.493,0l0,0.108l-0.368,0l0,0.187l0.323,0l0,0.102l-0.323,0l0,0.317l-0.125,0l0,-0.714Z" style="fill:#fff;fill-rule:nonzero;"/></g><g transform="matrix(20.0283,0,0,20.0283,272.228,137.721)"><path d="M0.076,-0.714l0.493,0l0,0.108l-0.368,0l0,0.187l0.323,0l0,0.102l-0.323,0l0,0.317l-0.125,0l0,-0.714Z" style="fill:#fff;fill-rule:nonzero;"/></g><g transform="matrix(20.0283,0,0,20.0283,289.672,137.721)"><path d="M0.076,-0.714l0.341,0c0.079,0 0.138,0.017 0.177,0.051c0.039,0.034 0.059,0.081 0.059,0.142c0,0.034 -0.005,0.062 -0.015,0.084c-0.01,0.023 -0.022,0.041 -0.035,0.054c-0.013,0.014 -0.027,0.024 -0.04,0.03c-0.013,0.006 -0.022,0.01 -0.028,0.012l0,0.002c0.011,0.001 0.022,0.005 0.034,0.01c0.013,0.005 0.024,0.014 0.035,0.025c0.011,0.012 0.019,0.027 0.026,0.046c0.007,0.019 0.011,0.042 0.011,0.07c0,0.042 0.003,0.08 0.009,0.114c0.007,0.035 0.017,0.059 0.03,0.074l-0.134,0c-0.009,-0.015 -0.015,-0.032 -0.017,-0.051c-0.001,-0.019 -0.002,-0.037 -0.002,-0.054c0,-0.033 -0.002,-0.061 -0.006,-0.085c-0.004,-0.023 -0.011,-0.043 -0.022,-0.059c-0.011,-0.015 -0.025,-0.027 -0.044,-0.034c-0.018,-0.007 -0.041,-0.011 -0.07,-0.011l-0.184,0l0,0.294l-0.125,0l0,-0.714Zm0.125,0.325l0.205,0c0.04,0 0.07,-0.01 0.091,-0.029c0.021,-0.019 0.031,-0.047 0.031,-0.085c0,-0.023 -0.003,-0.041 -0.01,-0.056c-0.007,-0.014 -0.016,-0.025 -0.028,-0.033c-0.011,-0.008 -0.025,-0.013 -0.04,-0.016c-0.015,-0.003 -0.03,-0.004 -0.046,-0.004l-0.203,0l0,0.223Z" style="fill:#fff;fill-rule:nonzero;"/></g><g transform="matrix(20.0283,0,0,20.0283,303.772,137.721)"><rect x="0.076" y="-0.714" width="0.125" height="0.714" style="fill:#fff;fill-rule:nonzero;"/></g><g transform="matrix(20.0283,0,0,20.0283,309.34,137.721)"><path d="M0.699,0l-0.08,0l-0.019,-0.084c-0.033,0.038 -0.067,0.064 -0.1,0.079c-0.033,0.015 -0.072,0.022 -0.115,0.022c-0.053,0 -0.101,-0.01 -0.144,-0.029c-0.042,-0.02 -0.078,-0.047 -0.107,-0.081c-0.029,-0.034 -0.052,-0.074 -0.068,-0.119c-0.015,-0.045 -0.023,-0.094 -0.023,-0.145c0,-0.051 0.008,-0.099 0.023,-0.144c0.016,-0.045 0.039,-0.085 0.068,-0.119c0.029,-0.034 0.065,-0.061 0.107,-0.081c0.043,-0.02 0.091,-0.03 0.144,-0.03c0.039,0 0.075,0.005 0.11,0.015c0.035,0.011 0.067,0.026 0.094,0.046c0.027,0.021 0.05,0.046 0.068,0.077c0.018,0.031 0.029,0.066 0.034,0.106l-0.122,0c-0.003,-0.023 -0.011,-0.044 -0.022,-0.062c-0.01,-0.017 -0.024,-0.032 -0.041,-0.044c-0.017,-0.012 -0.035,-0.021 -0.056,-0.027c-0.021,-0.006 -0.042,-0.009 -0.065,-0.009c-0.038,0 -0.071,0.008 -0.098,0.023c-0.028,0.015 -0.051,0.036 -0.068,0.062c-0.017,0.025 -0.03,0.054 -0.039,0.087c-0.008,0.033 -0.012,0.066 -0.012,0.1c0,0.034 0.004,0.067 0.012,0.1c0.009,0.033 0.022,0.062 0.039,0.087c0.017,0.026 0.04,0.047 0.068,0.062c0.027,0.015 0.06,0.023 0.098,0.023c0.032,0.001 0.06,-0.004 0.085,-0.013c0.025,-0.009 0.045,-0.022 0.062,-0.039c0.017,-0.017 0.03,-0.037 0.039,-0.062c0.009,-0.025 0.013,-0.052 0.014,-0.082l-0.19,0l0,-0.095l0.304,0l0,0.376Z" style="fill:#fff;fill-rule:nonzero;"/></g><g transform="matrix(20.0283,0,0,20.0283,330.11,137.721)"><path d="M0.158,-0.238c0,0.027 0.005,0.051 0.014,0.07c0.009,0.019 0.022,0.035 0.039,0.048c0.017,0.012 0.036,0.021 0.057,0.027c0.022,0.005 0.046,0.008 0.071,0.008c0.027,0 0.051,-0.003 0.07,-0.009c0.019,-0.007 0.035,-0.015 0.047,-0.025c0.012,-0.01 0.021,-0.021 0.026,-0.034c0.005,-0.013 0.008,-0.027 0.008,-0.04c0,-0.027 -0.006,-0.047 -0.019,-0.06c-0.012,-0.014 -0.025,-0.023 -0.04,-0.028c-0.025,-0.009 -0.055,-0.018 -0.089,-0.026c-0.033,-0.009 -0.075,-0.02 -0.124,-0.033c-0.031,-0.008 -0.056,-0.018 -0.077,-0.031c-0.02,-0.013 -0.036,-0.028 -0.048,-0.044c-0.012,-0.016 -0.021,-0.033 -0.026,-0.051c-0.005,-0.018 -0.007,-0.036 -0.007,-0.055c0,-0.036 0.007,-0.067 0.022,-0.093c0.015,-0.027 0.035,-0.049 0.06,-0.066c0.025,-0.017 0.053,-0.03 0.084,-0.038c0.031,-0.009 0.063,-0.013 0.095,-0.013c0.037,0 0.072,0.005 0.105,0.015c0.033,0.009 0.062,0.024 0.087,0.043c0.025,0.019 0.045,0.043 0.06,0.072c0.015,0.028 0.022,0.061 0.022,0.098l-0.125,0c-0.003,-0.046 -0.019,-0.078 -0.047,-0.097c-0.028,-0.019 -0.064,-0.029 -0.107,-0.029c-0.015,0 -0.03,0.002 -0.045,0.005c-0.015,0.003 -0.029,0.008 -0.042,0.015c-0.013,0.007 -0.023,0.016 -0.032,0.028c-0.008,0.012 -0.012,0.027 -0.012,0.045c0,0.025 0.008,0.045 0.023,0.06c0.016,0.014 0.037,0.025 0.062,0.032c0.003,0.001 0.013,0.004 0.031,0.009c0.019,0.005 0.039,0.01 0.062,0.016c0.023,0.006 0.045,0.012 0.066,0.018c0.022,0.005 0.038,0.009 0.047,0.012c0.023,0.007 0.044,0.017 0.061,0.03c0.017,0.013 0.032,0.027 0.043,0.044c0.012,0.016 0.021,0.033 0.026,0.052c0.006,0.019 0.009,0.037 0.009,0.056c0,0.04 -0.008,0.074 -0.025,0.103c-0.016,0.028 -0.037,0.051 -0.064,0.069c-0.027,0.018 -0.057,0.031 -0.091,0.04c-0.034,0.008 -0.069,0.012 -0.104,0.012c-0.041,0 -0.079,-0.005 -0.115,-0.015c-0.036,-0.01 -0.067,-0.025 -0.094,-0.046c-0.027,-0.021 -0.048,-0.047 -0.064,-0.079c-0.016,-0.033 -0.024,-0.071 -0.025,-0.115l0.125,0Z" style="fill:#fff;fill-rule:nonzero;"/></g><g transform="matrix(20.0283,0,0,20.0283,343.088,137.721)"><path d="M0.267,-0.714l0.133,0l0.275,0.714l-0.134,0l-0.067,-0.189l-0.285,0l-0.067,0.189l-0.129,0l0.274,-0.714Zm-0.044,0.43l0.218,0l-0.107,-0.307l-0.003,0l-0.108,0.307Z" style="fill:#fff;fill-rule:nonzero;"/></g><g transform="matrix(20.0283,0,0,20.0283,356.447,137.721)"><rect x="0.076" y="-0.714" width="0.125" height="0.714" style="fill:#fff;fill-rule:nonzero;"/></g><g transform="matrix(20.0283,0,0,20.0283,362.015,137.721)"><path d="M0.076,-0.714l0.125,0l0,0.606l0.363,0l0,0.108l-0.488,0l0,-0.714Z" style="fill:#fff;fill-rule:nonzero;"/></g><g transform="matrix(20.0283,0,0,20.0283,373.511,137.721)"><rect x="0.076" y="-0.714" width="0.125" height="0.714" style="fill:#fff;fill-rule:nonzero;"/></g><g transform="matrix(20.0283,0,0,20.0283,379.079,137.721)"><path d="M0.071,-0.714l0.132,0l0.326,0.526l0.002,0l0,-0.526l0.119,0l0,0.714l-0.132,0l-0.325,-0.525l-0.003,0l0,0.525l-0.119,0l0,-0.714Z" style="fill:#fff;fill-rule:nonzero;"/></g><g transform="matrix(20.0283,0,0,20.0283,393.539,137.721)"><path d="M0.699,0l-0.08,0l-0.019,-0.084c-0.033,0.038 -0.067,0.064 -0.1,0.079c-0.033,0.015 -0.072,0.022 -0.115,0.022c-0.053,0 -0.101,-0.01 -0.144,-0.029c-0.042,-0.02 -0.078,-0.047 -0.107,-0.081c-0.029,-0.034 -0.052,-0.074 -0.068,-0.119c-0.015,-0.045 -0.023,-0.094 -0.023,-0.145c0,-0.051 0.008,-0.099 0.023,-0.144c0.016,-0.045 0.039,-0.085 0.068,-0.119c0.029,-0.034 0.065,-0.061 0.107,-0.081c0.043,-0.02 0.091,-0.03 0.144,-0.03c0.039,0 0.075,0.005 0.11,0.015c0.035,0.011 0.067,0.026 0.094,0.046c0.027,0.021 0.05,0.046 0.068,0.077c0.018,0.031 0.029,0.066 0.034,0.106l-0.122,0c-0.003,-0.023 -0.011,-0.044 -0.022,-0.062c-0.01,-0.017 -0.024,-0.032 -0.041,-0.044c-0.017,-0.012 -0.035,-0.021 -0.056,-0.027c-0.021,-0.006 -0.042,-0.009 -0.065,-0.009c-0.038,0 -0.071,0.008 -0.098,0.023c-0.028,0.015 -0.051,0.036 -0.068,0.062c-0.017,0.025 -0.03,0.054 -0.039,0.087c-0.008,0.033 -0.012,0.066 -0.012,0.1c0,0.034 0.004,0.067 0.012,0.1c0.009,0.033 0.022,0.062 0.039,0.087c0.017,0.026 0.04,0.047 0.068,0.062c0.027,0.015 0.06,0.023 0.098,0.023c0.032,0.001 0.06,-0.004 0.085,-0.013c0.025,-0.009 0.045,-0.022 0.062,-0.039c0.017,-0.017 0.03,-0.037 0.039,-0.062c0.009,-0.025 0.013,-0.052 0.014,-0.082l-0.19,0l0,-0.095l0.304,0l0,0.376Z" style="fill:#fff;fill-rule:nonzero;"/></g></g></svg>